<?xml version="1.0" standalone="no"?>
<!DOCTYPE svg PUBLIC "-//W3C//DTD SVG 20010904//EN"
 "http://www.w3.org/TR/2001/REC-SVG-20010904/DTD/svg10.dtd">
<svg version="1.0" xmlns="http://www.w3.org/2000/svg"
 width="585.000000pt" height="480.000000pt" viewBox="0 0 585.000000 480.000000"
 preserveAspectRatio="xMidYMid meet">
<metadata>
Created by potrace 1.10, written by Peter Selinger 2001-2011
</metadata>
<g transform="translate(0.000000,480.000000) scale(0.100000,-0.100000)"
fill="#1c339e" stroke="none">
<path d="M2244 4776 c-28 -13 -64 -40 -81 -61 -57 -69 -80 -216 -49 -319 8
-25 15 -50 16 -54 7 -35 46 -99 83 -136 58 -57 133 -83 192 -67 124 34 193
144 203 323 8 151 -43 257 -147 311 -71 35 -145 37 -217 3z m176 -95 c56 -30
85 -97 85 -196 0 -100 -15 -150 -61 -203 -30 -36 -41 -42 -74 -42 -50 0 -101
43 -137 114 -22 43 -26 65 -27 146 -1 82 2 100 22 131 40 66 123 87 192 50z"/>
<path d="M855 4642 c-67 -24 -111 -81 -136 -176 -23 -86 -24 -134 -4 -223 24
-114 79 -198 151 -234 98 -47 200 25 253 176 17 47 21 84 21 175 0 107 -2 121
-27 171 -39 76 -91 110 -174 115 -35 2 -73 0 -84 -4z"/>
<path d="M2145 4054 c-123 -52 -191 -147 -316 -439 -67 -155 -154 -274 -267
-365 l-64 -50 -30 17 c-40 23 -158 139 -158 155 -1 7 -9 31 -20 53 -11 22 -19
45 -20 51 0 14 -41 109 -77 179 -28 56 -113 149 -157 172 -46 24 -461 21 -508
-3 -18 -9 -110 -94 -204 -188 -190 -190 -200 -205 -223 -361 -22 -145 -40
-259 -55 -355 -9 -52 -18 -113 -21 -135 -3 -22 -10 -64 -16 -92 -6 -29 -8 -57
-4 -63 9 -14 178 -13 193 2 7 7 12 24 12 39 0 30 35 189 51 229 5 14 11 34 13
45 16 75 123 318 139 312 11 -3 10 -204 -3 -443 -11 -201 2 -321 42 -376 20
-29 23 -47 27 -148 5 -173 -14 -311 -66 -470 -24 -74 -55 -169 -68 -210 -13
-41 -44 -131 -68 -200 l-44 -125 -83 -5 -84 -5 175 -22 c96 -13 242 -29 324
-37 83 -8 200 -20 260 -26 61 -6 173 -15 250 -20 77 -6 187 -14 245 -20 126
-12 497 -33 595 -34 68 -1 70 0 73 24 3 26 -36 66 -148 150 -53 39 -120 97
-120 103 0 2 64 7 143 10 489 19 1195 59 1484 84 190 16 192 16 198 41 5 19
-4 39 -36 86 -23 33 -50 70 -60 81 -19 22 -33 45 -115 193 -32 57 -59 110 -60
118 -3 18 37 39 113 60 32 9 78 22 103 29 73 21 319 105 400 137 41 16 82 31
90 33 8 2 38 13 65 25 28 12 59 25 70 30 214 89 215 89 195 65 -28 -34 -179
-332 -193 -380 -3 -11 -15 -44 -26 -74 l-21 -54 36 34 c34 32 101 116 186 233
20 28 64 97 97 153 119 198 130 232 87 272 -52 49 -307 118 -541 146 -194 24
-197 20 -40 -40 55 -21 138 -54 185 -72 47 -19 92 -36 100 -38 8 -2 41 -15 73
-28 l58 -24 -118 -38 c-65 -20 -156 -50 -203 -65 -92 -30 -292 -93 -300 -95
-6 -1 -274 -86 -370 -118 -221 -71 -230 -77 -230 -144 0 -43 22 -91 95 -211
14 -23 68 -113 80 -134 52 -88 65 -112 65 -119 0 -5 -72 -9 -160 -9 l-160 0 0
44 c0 24 -7 110 -15 192 -8 82 -17 185 -19 229 -2 44 -11 150 -20 235 -9 85
-23 227 -32 315 -8 88 -24 239 -34 335 -10 96 -22 222 -25 280 -6 95 -5 103 9
85 9 -11 16 -25 16 -30 0 -6 8 -26 19 -45 10 -19 33 -80 51 -135 18 -55 38
-118 46 -140 7 -22 16 -53 18 -70 13 -76 31 -132 47 -149 20 -21 36 -19 162
26 76 27 83 41 63 131 -9 40 -18 89 -22 110 -3 22 -12 57 -20 79 -8 22 -14 49
-14 59 0 18 -120 387 -145 444 -7 17 -25 59 -40 95 -55 131 -127 268 -162 310
-22 26 -61 54 -97 71 l-61 29 -265 0 c-261 -1 -266 -1 -325 -26z m598 -88 c44
-20 88 -64 120 -120 41 -75 165 -374 210 -506 23 -69 49 -153 52 -172 2 -9 10
-41 19 -70 17 -61 42 -168 50 -216 5 -28 2 -34 -20 -42 -14 -6 -27 -10 -29
-10 -2 0 -11 26 -19 58 -43 158 -107 344 -137 402 -11 19 -19 40 -19 47 0 7
-3 13 -8 13 -4 0 -17 21 -29 48 -24 52 -89 139 -114 155 -20 13 -65 2 -72 -18
-4 -8 -2 -70 4 -137 21 -274 41 -490 55 -608 8 -69 16 -156 19 -195 2 -38 11
-131 19 -205 16 -149 65 -740 62 -746 -1 -1 -30 -3 -65 -5 -62 -4 -64 -3 -67
21 -3 14 -11 59 -18 100 -8 41 -22 120 -31 175 -9 55 -23 132 -31 170 -8 39
-16 87 -19 108 -3 21 -12 71 -20 110 -8 40 -22 108 -31 152 -9 44 -22 109 -31
145 -8 36 -16 77 -18 93 -6 42 -28 81 -48 85 -30 6 -64 -6 -71 -25 -10 -25
-25 -199 -31 -353 -3 -74 -10 -211 -15 -305 -5 -93 -10 -245 -10 -337 l0 -168
-69 0 -68 0 -7 38 c-3 20 -11 159 -16 307 -6 149 -13 277 -16 285 -3 8 -10
307 -14 664 -10 701 -10 696 -63 696 -35 0 -46 -12 -91 -93 -45 -81 -82 -131
-166 -221 -60 -65 -185 -167 -232 -192 -30 -15 -32 -15 -57 11 l-26 26 30 21
c56 39 170 163 219 237 27 40 79 141 116 225 94 212 104 229 165 289 45 45 63
56 112 66 32 7 63 15 68 17 6 2 102 2 215 0 163 -3 213 -7 243 -20z m-633
-1072 c15 -667 19 -793 36 -1023 7 -112 14 -232 14 -267 0 -60 -1 -63 -27 -68
-16 -3 -146 -10 -289 -16 -298 -11 -320 -14 -340 -45 -23 -35 -3 -63 88 -125
44 -30 92 -65 106 -77 14 -12 41 -30 59 -40 50 -27 40 -37 -29 -29 -35 3 -146
11 -248 16 -102 6 -191 12 -198 15 -7 3 -146 10 -310 15 -163 6 -336 14 -384
18 l-88 7 35 65 c49 90 171 335 178 357 3 10 17 48 31 85 14 37 28 78 30 92 2
13 11 48 19 77 15 52 26 102 63 274 10 44 20 83 24 87 3 4 21 3 40 -2 88 -23
165 -42 184 -46 12 -2 48 -12 80 -23 l60 -18 38 -94 c22 -52 40 -98 42 -104 2
-5 8 -23 14 -38 7 -16 21 -52 33 -80 22 -55 23 -57 62 -152 14 -33 31 -75 39
-92 9 -24 19 -33 37 -33 33 0 159 38 166 50 4 6 -3 52 -13 103 -11 50 -28 137
-37 192 -9 55 -25 143 -35 195 -10 52 -21 115 -24 140 -10 70 -55 151 -96 174
-19 10 -138 71 -265 135 -255 128 -240 115 -222 211 4 25 17 90 27 145 54 286
56 289 133 219 54 -49 116 -95 302 -226 118 -83 160 -93 201 -45 13 16 24 35
24 43 0 8 26 31 58 51 94 60 222 175 297 266 38 47 71 84 72 83 2 -1 7 -213
13 -472z m433 -531 c8 -38 23 -111 32 -163 9 -52 23 -126 30 -165 8 -38 17
-86 20 -105 5 -34 20 -122 48 -283 8 -43 11 -79 8 -81 -3 -2 -43 -7 -89 -11
l-82 -8 0 335 c0 288 7 548 15 548 2 0 10 -30 18 -67z"/>
</g>
</svg>
